<?xml version="1.0" encoding="utf-8"?>
<!-- Generator: Adobe Illustrator 16.0.0, SVG Export Plug-In . SVG Version: 6.00 Build 0)  -->
<!DOCTYPE svg PUBLIC "-//W3C//DTD SVG 1.1//EN" "http://www.w3.org/Graphics/SVG/1.1/DTD/svg11.dtd">
<svg version="1.1" id="Layer_1" xmlns="http://www.w3.org/2000/svg" xmlns:xlink="http://www.w3.org/1999/xlink" x="0px" y="0px"
	 width="70px" height="70px" viewBox="0 0 70 70" enable-background="new 0 0 70 70" xml:space="preserve">
<g>
	<defs>
		<filter id="Adobe_OpacityMaskFilter" filterUnits="userSpaceOnUse" x="0" y="0" width="70" height="70">
			<feColorMatrix  type="matrix" values="1 0 0 0 0  0 1 0 0 0  0 0 1 0 0  0 0 0 1 0"/>
		</filter>
	</defs>
	<mask maskUnits="userSpaceOnUse" x="0" y="0" width="70" height="70" id="icon-b">
		<g filter="url(#Adobe_OpacityMaskFilter)">
			<path id="icon-a" fill="#FFFFFF" d="M4,0h61c4,0,5,1,5,5v60c0,4-1,5-5,5H4c-3,0-4-1-4-5V5C0,1,1,0,4,0z"/>
		</g>
	</mask>
	<g mask="url(#icon-b)">
		<path fill="#00F5F8" d="M0,0h70v70H0V0z"/>
		<path fill="#FFFFFF" fill-opacity="0.383" d="M4,1h61c2.667,0,4.333,0.667,5,2V0H0v3C0.667,1.667,2,1,4,1z"/>
		<path opacity="0.165" enable-background="new    " d="M26.375,11.5l9.25,1.125L54,18.25l4,6.11v19.558L33.423,69H4.006
			C2.003,69,0,68.854,0,64.911V38.064l12.348-14L26.375,11.5z"/>
		<path fill-opacity="0.383" d="M4,69h61c2.667,0,4.333-1,5-3v4H0v-4C0.667,68,2,69,4,69z"/>
		<g display="none">
			<g id="Layer_1_1_" display="inline">
				<path fill="#FFFFFF" d="M35,8.281C20.246,8.281,8.281,20.246,8.281,35S20.246,61.719,35,61.719S61.719,49.754,61.719,35
					S49.754,8.281,35,8.281z M35,19.297c4.301,0,7.793,3.492,7.793,7.793c0,4.301-3.492,7.793-7.793,7.793s-7.793-3.492-7.793-7.793
					C27.207,22.789,30.699,19.297,35,19.297z M47.598,46.156c0,2.496-2.039,4.535-4.535,4.535H26.938
					c-2.496,0-4.535-2.039-4.535-4.535v-9.609c0-2.496,2.039-4.535,4.535-4.535h0.375c1.582,2.578,4.43,4.3,7.676,4.3
					s6.094-1.726,7.676-4.3h0.375c2.496,0,4.535,2.039,4.535,4.535v9.609H47.598z"/>
			</g>
			<g id="Layer_2" display="inline">
				<g>
					<path fill="#FFFFFF" d="M47.984,8.398H15.289c-3.223,0-5.859,2.637-5.859,5.859v41.484c0,3.223,2.637,5.858,5.859,5.858h32.695
						c3.223,0,5.855-2.64,5.855-5.858V14.258C53.844,11.035,51.207,8.398,47.984,8.398z M31.637,19.297
						c4.3,0,7.792,3.492,7.792,7.793c0,4.301-3.492,7.793-7.792,7.793c-4.301,0-7.793-3.492-7.793-7.793
						C23.844,22.789,27.324,19.297,31.637,19.297z M44.234,46.156c0,2.496-2.039,4.535-4.535,4.535H23.574
						c-2.496,0-4.535-2.039-4.535-4.535v-9.609c0-2.496,2.039-4.535,4.535-4.535h0.375c1.582,2.578,4.43,4.3,7.676,4.3
						s6.094-1.726,7.676-4.3h0.375c2.496,0,4.535,2.039,4.535,4.535v9.609H44.234z"/>
					<g>
						<g>
							<g>
								<g>
									<rect id="SVGID_2_" x="53.375" y="18.242" fill="#FFFFFF" width="7.207" height="32.227"/>
								</g>
								<g>
									<g>
										<g>
											<defs>
												<rect id="SVGID_1_" x="53.375" y="18.242" width="7.207" height="32.227"/>
											</defs>
											<clipPath id="SVGID_3_">
												<use xlink:href="#SVGID_1_"  overflow="visible"/>
											</clipPath>
											<g clip-path="url(#SVGID_3_)">
												<path fill="#FFFFFF" d="M59.41,19.063h-8.438c-0.646,0-1.176,0.527-1.176,1.172v5.391c0,0.645,0.527,1.172,1.176,1.172
													h8.438c0.645,0,1.172-0.527,1.172-1.172v-5.391C60.582,19.59,60.055,19.063,59.41,19.063z"/>
												<path fill="#FFFFFF" d="M56.188,42.266H47.75c-0.645,0-1.172,0.527-1.172,1.172v5.395c0,0.646,0.527,1.172,1.172,1.172
													h8.438c0.646,0,1.172-0.523,1.172-1.172v-5.395C57.359,42.793,56.832,42.266,56.188,42.266z"/>
												<path fill="#FFFFFF" d="M58.18,30.664h-8.438c-0.645,0-1.172,0.527-1.172,1.172v5.391c0,0.646,0.527,1.172,1.172,1.172
													h8.438c0.646,0,1.172-0.523,1.172-1.172v-5.391C59.352,31.191,58.824,30.664,58.18,30.664z"/>
											</g>
										</g>
									</g>
								</g>
							</g>
						</g>
					</g>
				</g>
			</g>
			<g id="Layer_3" display="inline">
				<g>
					<path fill="#FFFFFF" d="M60.664,17.539h-2.402c-0.375,2.578-2.59,4.57-5.273,4.57c-2.682,0-4.906-1.992-5.271-4.57h-25.43
						c-0.375,2.578-2.59,4.57-5.273,4.57s-4.91-1.992-5.273-4.57H9.336c-0.645,0-1.172,0.527-1.172,1.172v37.734
						c0,0.645,0.527,1.172,1.172,1.172h51.328c0.645,0,1.172-0.527,1.172-1.172V18.711C61.836,18.066,61.309,17.539,60.664,17.539z
						 M23.281,25.508c3.305,0,5.988,2.684,5.988,5.988c0,3.304-2.684,5.988-5.988,5.988c-3.304,0-5.988-2.688-5.988-5.988
						C17.293,28.192,19.977,25.508,23.281,25.508z M32.961,46.156c0,1.922-1.57,3.492-3.492,3.492H17.082
						c-1.922,0-3.492-1.57-3.492-3.492v-7.383c0-1.922,1.57-3.492,3.492-3.492h0.293c1.219,1.979,3.398,3.305,5.906,3.305
						c2.508,0,4.688-1.324,5.906-3.305h0.293c1.922,0,3.492,1.57,3.492,3.492v7.383H32.961z M56.328,45.781
						c0,0.645-0.527,1.172-1.172,1.172H36.992c-0.645,0-1.172-0.527-1.172-1.172v-0.82c0-0.645,0.527-1.172,1.172-1.172h18.164
						c0.645,0,1.172,0.527,1.172,1.172V45.781z M56.328,38.164c0,0.645-0.527,1.172-1.172,1.172H36.992
						c-0.645,0-1.172-0.527-1.172-1.172v-0.82c0-0.645,0.527-1.172,1.172-1.172h18.164c0.645,0,1.172,0.527,1.172,1.172V38.164z
						 M56.328,30.547c0,0.645-0.527,1.172-1.172,1.172H36.992c-0.645,0-1.172-0.527-1.172-1.172v-0.82
						c0-0.645,0.527-1.172,1.172-1.172h18.164c0.645,0,1.172,0.527,1.172,1.172V30.547z"/>
					<path fill="#FFFFFF" d="M17.012,12.383c-2.367,0-4.277,1.91-4.277,4.277c0,2.367,1.91,4.277,4.277,4.277
						c2.367,0,4.277-1.91,4.277-4.277C21.289,14.293,19.379,12.383,17.012,12.383z M17.012,19.414c-1.523,0-2.754-1.23-2.754-2.754
						c0-1.524,1.23-2.754,2.754-2.754c1.524,0,2.754,1.229,2.754,2.754C19.766,18.184,18.535,19.414,17.012,19.414z"/>
					<path fill="#FFFFFF" d="M53.105,12.383c-2.367,0-4.277,1.91-4.277,4.277c0,2.367,1.91,4.277,4.277,4.277
						s4.273-1.91,4.273-4.277C57.382,14.293,55.473,12.383,53.105,12.383z M53.105,19.414c-1.523,0-2.754-1.23-2.754-2.754
						c0-1.524,1.229-2.754,2.754-2.754c1.521,0,2.754,1.229,2.754,2.754C55.859,18.184,54.629,19.414,53.105,19.414z"/>
				</g>
			</g>
			<g id="Layer_4" display="inline">
				<g>
					<path fill="#FFFFFF" d="M46.883,26.41h-7.5c-0.48,0-0.879,0.398-0.879,0.879l0,0c0,0.48,0.398,0.879,0.879,0.879h7.5
						c0.48,0,0.879-0.398,0.879-0.879l0,0C47.762,26.797,47.363,26.41,46.883,26.41z"/>
					<path fill="#FFFFFF" d="M46.883,23.199h-7.5c-0.48,0-0.879,0.398-0.879,0.879s0.398,0.879,0.879,0.879h7.5
						c0.48,0,0.879-0.398,0.879-0.879S47.363,23.199,46.883,23.199z"/>
					<path fill="#FFFFFF" d="M35,8.281C20.246,8.281,8.281,20.246,8.281,35S20.246,61.719,35,61.719S61.719,49.754,61.719,35
						S49.754,8.281,35,8.281z M28.086,27.734c3.34,0,6.047,2.707,6.047,6.047c0,3.34-2.707,6.047-6.047,6.047
						s-6.047-2.707-6.047-6.047C22.039,30.441,24.746,27.734,28.086,27.734z M37.871,48.582c0,1.934-1.582,3.527-3.527,3.527H21.828
						c-1.934,0-3.527-1.582-3.527-3.527v-7.465c0-1.934,1.582-3.527,3.527-3.527h0.293c1.23,2.004,3.434,3.34,5.965,3.34
						c2.531,0,4.734-1.336,5.965-3.34h0.293c1.934,0,3.527,1.582,3.527,3.527V48.582z M52.508,26.527c0,2.098-1.488,3.82-3.305,3.82
						h-7.277l-7.02,2.777l2.098-2.789h0.047c-1.816,0-3.305-1.723-3.305-3.82v-4.84c0-2.098,1.488-3.82,3.305-3.82h12.152
						c1.816,0,3.305,1.723,3.305,3.82V26.527z"/>
					<path fill="#FFFFFF" d="M46.883,20h-7.5c-0.48,0-0.879,0.398-0.879,0.879s0.398,0.879,0.879,0.879h7.5
						c0.48,0,0.879-0.398,0.879-0.879S47.363,20,46.883,20z"/>
				</g>
			</g>
			<g id="Layer_5" display="inline">
				<path fill="#FFFFFF" d="M34.883,8.164c-14.754,0-26.719,11.965-26.719,26.719s11.965,26.719,26.719,26.719
					s26.719-11.965,26.719-26.719S49.637,8.164,34.883,8.164z M29.445,22.203c3.984,0,7.219,3.234,7.219,7.219
					c0,3.985-3.234,7.219-7.219,7.219c-3.985,0-7.219-3.23-7.219-7.219C22.226,25.437,25.461,22.203,29.445,22.203z M41.105,47.082
					c0,2.309-1.891,4.207-4.207,4.207H21.98c-2.309,0-4.207-1.887-4.207-4.207v-8.895c0-2.313,1.887-4.208,4.207-4.208h0.352
					c1.465,2.391,4.102,3.984,7.113,3.984c3.011,0,5.648-1.594,7.114-3.984h0.354c2.312,0,4.207,1.887,4.207,4.208v8.895H41.105z
					 M49.344,29.129v5.988h-2.801v-5.988h-5.988v-2.801h5.988v-5.977h2.801v5.988h5.988v2.801h-5.988V29.129z"/>
			</g>
			<g id="Layer_6" display="inline">
				<path fill="#FFFFFF" d="M35,8.281C20.246,8.281,8.281,20.246,8.281,35S20.246,61.719,35,61.719S61.719,49.754,61.719,35
					S49.754,8.281,35,8.281z M29.563,22.32c3.984,0,7.219,3.234,7.219,7.219s-3.234,7.219-7.219,7.219s-7.219-3.234-7.219-7.219
					S25.578,22.32,29.563,22.32z M41.223,47.199c0,2.309-1.887,4.207-4.207,4.207H22.098c-2.309,0-4.207-1.887-4.207-4.207v-8.895
					c0-2.313,1.887-4.208,4.207-4.208h0.352c1.465,2.39,4.102,3.984,7.113,3.984s5.648-1.596,7.113-3.984h0.352
					c2.313,0,4.207,1.886,4.207,4.208v8.895H41.223z M40.742,29.258v-2.813h14.297v2.813H40.742z"/>
			</g>
			<g id="Layer_7" display="inline">
				<path fill="#FFFFFF" d="M35,8.281C20.246,8.281,8.281,20.246,8.281,35S20.246,61.719,35,61.719S61.719,49.754,61.719,35
					S49.754,8.281,35,8.281z M29.563,22.32c3.984,0,7.219,3.234,7.219,7.219s-3.234,7.219-7.219,7.219s-7.219-3.234-7.219-7.219
					S25.578,22.32,29.563,22.32z M41.223,47.199c0,2.309-1.887,4.207-4.207,4.207H22.098c-2.309,0-4.207-1.887-4.207-4.207v-8.895
					c0-2.313,1.887-4.208,4.207-4.208h0.352c1.465,2.39,4.102,3.984,7.113,3.984s5.648-1.596,7.113-3.984h0.352
					c2.313,0,4.207,1.886,4.207,4.208v8.895H41.223z M48.219,33.031l-1.992,1.992l-1.992-1.992l-4.805-4.805l1.992-1.992
					l4.805,4.805l8.121-8.121l1.992,1.992L48.219,33.031z"/>
			</g>
			<g id="Layer_8" display="inline">
				<g>
					<path fill="#FFFFFF" d="M35,8.281C20.246,8.281,8.281,20.246,8.281,35S20.246,61.719,35,61.719S61.719,49.754,61.719,35
						S49.754,8.281,35,8.281z M44.926,17.07c3.023,0,5.473,2.449,5.473,5.473s-2.445,5.473-5.473,5.473
						c-3.023,0-5.473-2.449-5.473-5.473S41.902,17.07,44.926,17.07z M40.461,36.605c0,3.021-2.449,5.473-5.473,5.473
						s-5.473-2.449-5.473-5.473c0-3.024,2.449-5.477,5.473-5.477S40.461,33.582,40.461,36.605z M25.074,17.07
						c3.023,0,5.473,2.449,5.473,5.473s-2.449,5.473-5.473,5.473c-3.024,0-5.473-2.449-5.473-5.473S22.051,17.07,25.074,17.07z
						 M16.238,35.914v-6.738c0-1.746,1.43-3.188,3.188-3.188h0.27c1.113,1.816,3.105,3.023,5.391,3.023s4.277-1.207,5.391-3.023
						h0.27c1.746,0,3.188,1.43,3.188,3.188v1.289c-2.953,0.504-5.203,3.07-5.203,6.141c0,0.895,0.188,1.734,0.527,2.496h-9.844
						C17.668,39.102,16.238,37.672,16.238,35.914z M43.836,49.742c0,1.746-1.43,3.188-3.188,3.188H29.34
						c-1.746,0-3.188-1.43-3.188-3.188v-6.738c0-1.746,1.43-3.188,3.188-3.188h0.27c1.113,1.813,3.105,3.021,5.391,3.021
						s4.276-1.207,5.392-3.021h0.271c1.746,0,3.188,1.43,3.188,3.188v6.738H43.836z M53.762,35.914c0,1.746-1.43,3.188-3.188,3.188
						h-9.82c0.34-0.762,0.527-1.604,0.527-2.496c0-3.082-2.25-5.637-5.203-6.141v-1.289c0-1.746,1.43-3.188,3.188-3.188h0.271
						c1.111,1.816,3.104,3.023,5.391,3.023s4.277-1.207,5.393-3.023h0.271c1.746,0,3.188,1.43,3.188,3.188v6.738H53.762z"/>
				</g>
			</g>
		</g>
	</g>
</g>
<circle fill="#FFFFFF" cx="35" cy="35" r="26.5"/>
<g>
	<path fill-rule="evenodd" clip-rule="evenodd" d="M46.222,21.398c0.197,0,0.348,0,0.498,0c2.06,0,4.117-0.002,6.176,0
		c0.957,0,1.377,0.423,1.377,1.372c-0.001,0.942,0.003,1.882-0.001,2.823c-0.004,0.844-0.445,1.286-1.281,1.288
		c-2.117,0.002-4.234,0-6.352-0.001c-0.127,0-0.253,0-0.416,0c0,0.185,0,0.334,0,0.484c0,7.929,0,15.857-0.001,23.786
		c0,0.928-0.438,1.555-1.228,1.741c-0.169,0.04-0.351,0.044-0.524,0.044c-7.811,0.003-15.622,0.004-23.433,0.002
		c-1.181,0-1.797-0.626-1.797-1.814c-0.001-8.881,0-17.762-0.005-26.643c0-0.318,0.098-0.556,0.323-0.78
		c1.844-1.833,3.682-3.67,5.515-5.514c0.197-0.199,0.402-0.286,0.684-0.286c6.234,0.006,12.469,0.003,18.703,0.005
		c1.129,0,1.764,0.646,1.763,1.777C46.222,20.233,46.222,20.785,46.222,21.398z M26.133,18.987c0,0.195,0,0.345,0,0.495
		c0,1.517,0.002,3.034,0.001,4.552c-0.001,0.629-0.138,0.765-0.773,0.765c-1.518,0.001-3.035,0-4.552-0.001
		c-0.149,0-0.298,0-0.487,0c0,0.173,0,0.3,0,0.426c0,3.034,0,6.069,0,9.105c0,5.598,0,11.196,0.001,16.795
		c0,0.554,0.163,0.72,0.708,0.728c0.094,0.002,0.188,0.002,0.282,0.002c7.668,0,15.337,0,23.006,0c0.683,0,0.819-0.139,0.819-0.833
		c0-7.916,0-15.83,0-23.746c0-0.125,0-0.25,0-0.395c-0.181,0-0.31,0-0.439,0c-4.045,0-8.091,0.003-12.137-0.006
		c-0.222,0-0.477-0.054-0.659-0.172c-1.029-0.66-2.042-1.346-3.056-2.029c-0.483-0.325-0.484-0.738-0.006-1.058
		c0.977-0.654,1.946-1.318,2.939-1.946c0.243-0.153,0.563-0.257,0.848-0.258c3.998-0.016,7.997-0.011,11.996-0.011
		c0.16,0,0.319,0,0.457,0c0.031-0.074,0.047-0.095,0.047-0.116c0.004-0.471,0.009-0.94,0.009-1.411
		c0.001-0.766-0.116-0.884-0.873-0.884c-5.905,0-11.809,0-17.713,0C26.425,18.987,26.3,18.987,26.133,18.987z M50.261,22.523
		c-5.812,0-11.588,0-17.372,0c0,0.357,0,0.692,0,1.047c5.795,0,11.572,0,17.372,0C50.261,23.219,50.261,22.884,50.261,22.523z
		 M50.269,24.71c-5.814,0-11.592,0-17.368,0c0,0.364,0,0.707,0,1.037c5.806,0,11.581,0,17.368,0
		C50.269,25.389,50.269,25.064,50.269,24.71z M25.021,19.97c-1.232,1.231-2.5,2.5-3.706,3.705c1.162,0,2.435,0,3.706,0
		C25.021,22.385,25.021,21.123,25.021,19.97z M51.449,25.734c0.545,0,1.05,0.01,1.552-0.011c0.08-0.003,0.222-0.144,0.224-0.223
		c0.016-0.938,0.014-1.877,0.001-2.815c0-0.082-0.109-0.229-0.174-0.232c-0.533-0.019-1.068-0.01-1.603-0.01
		C51.449,23.56,51.449,24.625,51.449,25.734z M31.746,25.325c0-0.796,0-1.519,0-2.315c-0.598,0.392-1.146,0.751-1.724,1.131
		C30.614,24.548,31.153,24.918,31.746,25.325z"/>
	<path fill-rule="evenodd" clip-rule="evenodd" fill="#FFFFFF" d="M50.261,22.523c0,0.36,0,0.696,0,1.047c-5.8,0-11.577,0-17.372,0
		c0-0.354,0-0.689,0-1.047C38.673,22.523,44.449,22.523,50.261,22.523z"/>
	<path fill-rule="evenodd" clip-rule="evenodd" fill="#FFFFFF" d="M50.269,24.71c0,0.354,0,0.679,0,1.037
		c-5.787,0-11.562,0-17.368,0c0-0.33,0-0.673,0-1.037C38.677,24.71,44.454,24.71,50.269,24.71z"/>
	<path fill-rule="evenodd" clip-rule="evenodd" fill="#FFFFFF" d="M25.021,19.97c0,1.152,0,2.415,0,3.705c-1.271,0-2.544,0-3.706,0
		C22.521,22.47,23.79,21.201,25.021,19.97z"/>
	<path fill-rule="evenodd" clip-rule="evenodd" fill="#FFFFFF" d="M51.449,25.734c0-1.109,0-2.174,0-3.292
		c0.534,0,1.069-0.009,1.603,0.01c0.064,0.002,0.174,0.15,0.174,0.232c0.013,0.938,0.015,1.877-0.001,2.815
		c-0.002,0.08-0.144,0.22-0.224,0.223C52.499,25.744,51.994,25.734,51.449,25.734z"/>
	<path fill-rule="evenodd" clip-rule="evenodd" fill="#FFFFFF" d="M31.746,25.325c-0.592-0.407-1.132-0.777-1.724-1.184
		c0.579-0.38,1.126-0.739,1.724-1.131C31.746,23.806,31.746,24.529,31.746,25.325z"/>
	<path fill-rule="evenodd" clip-rule="evenodd" d="M24.334,44.411c-0.585-1.219-0.467-2.087,0.361-2.727
		c0.732-0.563,1.71-0.539,2.4,0.061c0.771,0.672,0.871,1.579,0.274,2.662c0.575,0.35,1.077,0.79,1.36,1.415
		c0.167,0.371,0.304,0.765,0.381,1.163c0.128,0.659-0.095,1.176-0.712,1.459c-0.524,0.24-1.102,0.404-1.673,0.493
		c-0.899,0.138-1.804,0.064-2.687-0.183c-0.102-0.029-0.2-0.067-0.298-0.106c-1.055-0.419-1.371-1.053-1.06-2.144
		c0.235-0.823,0.713-1.471,1.429-1.94C24.186,44.514,24.261,44.461,24.334,44.411z M25.786,48.004
		c0.641-0.148,1.267-0.283,1.886-0.445c0.192-0.051,0.342-0.173,0.324-0.435c-0.075-1.074-1.012-1.97-2.133-2.016
		c-1.082-0.044-2.098,0.826-2.235,1.899c-0.035,0.275,0.034,0.479,0.302,0.549C24.537,47.716,25.15,47.853,25.786,48.004z
		 M26.618,43.205c0.007-0.433-0.352-0.81-0.789-0.824c-0.443-0.015-0.844,0.365-0.849,0.806c-0.004,0.422,0.374,0.815,0.796,0.832
		C26.214,44.036,26.609,43.653,26.618,43.205z"/>
	<path fill-rule="evenodd" clip-rule="evenodd" d="M24.332,32.915c-0.573-1.277-0.452-2.122,0.39-2.748
		c0.73-0.543,1.696-0.51,2.376,0.08c0.769,0.669,0.866,1.574,0.271,2.665c0.594,0.352,1.092,0.814,1.382,1.449
		c0.164,0.36,0.283,0.747,0.362,1.134c0.131,0.64-0.116,1.165-0.695,1.441c-0.469,0.224-0.986,0.381-1.499,0.475
		c-0.91,0.167-1.828,0.106-2.729-0.111c-0.148-0.036-0.293-0.087-0.436-0.141c-1.066-0.412-1.388-1.07-1.067-2.173
		c0.236-0.813,0.714-1.447,1.416-1.915C24.18,33.018,24.257,32.966,24.332,32.915z M25.791,36.505
		c0.639-0.15,1.265-0.285,1.883-0.447c0.195-0.051,0.34-0.176,0.321-0.435c-0.079-1.092-1.046-1.996-2.171-2.012
		c-1.083-0.017-2.065,0.843-2.197,1.903c-0.034,0.274,0.036,0.475,0.307,0.545C24.541,36.216,25.153,36.354,25.791,36.505z
		 M26.619,31.698c0-0.435-0.364-0.806-0.799-0.813c-0.449-0.008-0.842,0.371-0.841,0.813c0,0.419,0.385,0.813,0.806,0.822
		C26.223,32.532,26.618,32.142,26.619,31.698z"/>
	<path fill-rule="evenodd" clip-rule="evenodd" d="M36.717,35.802c-1.575,0-3.15,0-4.726,0c-0.105,0-0.211,0.001-0.317-0.002
		c-0.406-0.014-0.628-0.22-0.615-0.563c0.012-0.333,0.228-0.521,0.619-0.524c1.105-0.003,2.21,0,3.315,0c2.246,0,4.492,0,6.738,0
		c0.048,0,0.094-0.001,0.141,0c0.361,0.015,0.569,0.204,0.58,0.526c0.011,0.334-0.203,0.548-0.583,0.559
		c-0.364,0.012-0.729,0.005-1.093,0.005C39.422,35.802,38.07,35.802,36.717,35.802z"/>
	<path fill-rule="evenodd" clip-rule="evenodd" d="M36.717,47.297c-1.656,0-3.313,0.007-4.971-0.01
		c-0.2-0.003-0.454-0.09-0.578-0.23c-0.1-0.113-0.114-0.409-0.032-0.547c0.087-0.146,0.326-0.278,0.503-0.284
		c1.045-0.026,2.092-0.013,3.138-0.013c2.316,0,4.63,0,6.946,0c0.059,0,0.119-0.003,0.177,0.001
		c0.333,0.021,0.561,0.254,0.552,0.563c-0.01,0.307-0.212,0.512-0.551,0.517c-0.799,0.01-1.599,0.005-2.397,0.005
		C38.574,47.3,37.646,47.298,36.717,47.297L36.717,47.297z"/>
	<path fill-rule="evenodd" clip-rule="evenodd" d="M34.164,32.523c-0.81,0-1.62,0.002-2.43,0c-0.438-0.002-0.669-0.189-0.677-0.542
		c-0.008-0.352,0.227-0.56,0.657-0.561c1.62-0.003,3.24-0.003,4.86,0c0.451,0.001,0.666,0.183,0.673,0.542
		c0.005,0.368-0.226,0.558-0.688,0.559C35.76,32.523,34.962,32.523,34.164,32.523z"/>
	<path fill-rule="evenodd" clip-rule="evenodd" d="M34.179,42.915c0.8,0,1.599-0.001,2.398,0.002c0.442,0.002,0.667,0.19,0.67,0.548
		c0.003,0.358-0.222,0.556-0.661,0.556c-1.622,0.004-3.245,0.004-4.867,0.001c-0.408-0.001-0.667-0.23-0.66-0.571
		c0.006-0.338,0.232-0.529,0.651-0.533C32.533,42.912,33.356,42.915,34.179,42.915z"/>
	<path fill-rule="evenodd" clip-rule="evenodd" fill="#FFFFFF" d="M25.786,48.004c-0.635-0.151-1.249-0.288-1.856-0.447
		c-0.268-0.07-0.337-0.273-0.302-0.549c0.137-1.073,1.153-1.943,2.235-1.899c1.122,0.046,2.059,0.941,2.133,2.016
		c0.018,0.262-0.132,0.384-0.324,0.435C27.052,47.721,26.427,47.855,25.786,48.004z"/>
	<path fill-rule="evenodd" clip-rule="evenodd" fill="#FFFFFF" d="M26.618,43.205c-0.008,0.448-0.404,0.831-0.842,0.813
		c-0.423-0.017-0.8-0.41-0.796-0.832c0.005-0.44,0.406-0.82,0.849-0.806C26.266,42.396,26.625,42.772,26.618,43.205z"/>
	<path fill-rule="evenodd" clip-rule="evenodd" fill="#FFFFFF" d="M25.791,36.505c-0.638-0.151-1.25-0.289-1.858-0.445
		c-0.271-0.07-0.341-0.271-0.307-0.545c0.132-1.061,1.114-1.92,2.197-1.903c1.125,0.016,2.093,0.92,2.171,2.012
		c0.019,0.259-0.126,0.384-0.321,0.435C27.056,36.22,26.43,36.354,25.791,36.505z"/>
	<path fill-rule="evenodd" clip-rule="evenodd" fill="#FFFFFF" d="M26.619,31.698c-0.001,0.444-0.396,0.834-0.834,0.822
		c-0.42-0.01-0.806-0.403-0.806-0.822c-0.001-0.441,0.392-0.82,0.841-0.813C26.255,30.892,26.62,31.263,26.619,31.698z"/>
</g>
</svg>
